<svg xmlns="http://www.w3.org/2000/svg" width="224.077" height="43.058" viewBox="0 0 224.077 43.058">
  <g id="logo-white" transform="translate(-1876.381 -553.761)">
    <g id="Group_537" data-name="Group 537" transform="translate(1876.381 553.761)">
      <path id="Path_2730" data-name="Path 2730" d="M2031.466,615.3a7.1,7.1,0,0,1-5.892,3.388q-2.778,0-3.881-1.531t-1.108-5.395V597.774h-4.858V611.83q0,4.618,1,6.6a7.543,7.543,0,0,0,2.961,3.149,8.289,8.289,0,0,0,4.283,1.16,9.191,9.191,0,0,0,3.96-.942,11.272,11.272,0,0,0,3.532-2.617v3.149h4.859V597.774h-4.859Z" transform="translate(-1971.944 -583.945)" fill="#0B637B"/>
      <path id="Path_2731" data-name="Path 2731" d="M2114.119,616.946V606.513a32.3,32.3,0,0,0-.175-4.2,7.006,7.006,0,0,0-2.254-3.986,9.4,9.4,0,0,0-6.376-2.08q-5.307,0-8.134,3.332v5.307q3.764-4.108,7.737-4.108,4.423,0,4.427,4.431v1.308l-6.215,2.141a11.3,11.3,0,0,0-4.737,2.892,6,6,0,0,0-1.666,4.152,5.743,5.743,0,0,0,1.705,4.252,5.814,5.814,0,0,0,4.27,1.7,10.57,10.57,0,0,0,6.589-2.4q.559,2.455,3.681,2.455a5.765,5.765,0,0,0,2.093-.388,15.862,15.862,0,0,0,2.656-1.452v-2.97a5.893,5.893,0,0,1-2.748,1.308C2114.4,618.2,2114.119,617.783,2114.119,616.946Zm-4.776-.532a6.105,6.105,0,0,1-4.3,1.893,3.438,3.438,0,0,1-2.521-.96,3.6,3.6,0,0,1,.048-4.976,10.971,10.971,0,0,1,3.511-1.989l3.253-1.252Z" transform="translate(-2027.492 -582.898)" fill="#0B637B"/>
      <path id="Path_2732" data-name="Path 2732" d="M2193.5,597.433a8.116,8.116,0,0,0-4.27-1.187,9.758,9.758,0,0,0-7.387,3.6v-3.118h-4.963v24.541h4.963V603.74q2.4-3.441,5.84-3.441a4.386,4.386,0,0,1,3.842,1.614q1.148,1.614,1.147,5.378v13.978h4.854v-14.03a15.549,15.549,0,0,0-1.025-6.542A7.741,7.741,0,0,0,2193.5,597.433Z" transform="translate(-2082.461 -582.898)" fill="#0B637B"/>
      <path id="Path_2733" data-name="Path 2733" d="M2260.942,603.079V591.068h7.746v-4.361h-7.763v-5.09l-9.107,8.971v.48h4.27v10.9a21.677,21.677,0,0,0,.305,4.523,7.118,7.118,0,0,0,.759,1.923,5.455,5.455,0,0,0,1.147,1.308,8.1,8.1,0,0,0,5.552,1.949,12.242,12.242,0,0,0,6.106-1.574v-4.549a10.781,10.781,0,0,1-5.522,1.745Q2260.942,607.287,2260.942,603.079Z" transform="translate(-2133.855 -572.865)" fill="#0B637B"/>
      <rect id="Rectangle_423" data-name="Rectangle 423" width="4.854" height="24.541" transform="translate(139.704 13.829)" fill="#0B637B"/>
      <path id="Path_2734" data-name="Path 2734" d="M2322.444,564.96a2.693,2.693,0,0,0-1.975.872,2.732,2.732,0,0,0,0,4,2.694,2.694,0,0,0,1.975.872,2.816,2.816,0,0,0,2.054-.872,2.783,2.783,0,0,0,.851-2.028,2.723,2.723,0,0,0-.851-2.028A2.861,2.861,0,0,0,2322.444,564.96Z" transform="translate(-2180.337 -561.441)" fill="#0B637B"/>
      <path id="Path_2735" data-name="Path 2735" d="M2356.91,558.64q-2.516,2.9-2.521,8.827v1.469h-3.519V573.3h3.519V593.49h4.858V573.324h4.362v-4.361h-4.362V567.48q0-3.894,1.1-5.412c.741-1.016,2.058-1.522,3.964-1.522a6.6,6.6,0,0,1,2.242.436v-4.758a16.486,16.486,0,0,0-3.6-.48A7.761,7.761,0,0,0,2356.91,558.64Z" transform="translate(-2201.785 -555.121)" fill="#0B637B"/>
      <path id="Path_2736" data-name="Path 2736" d="M2405.534,564.96a2.7,2.7,0,0,0-1.976.872,2.754,2.754,0,0,0-.873,1.989,2.781,2.781,0,0,0,.873,2.015,2.7,2.7,0,0,0,1.976.872,2.817,2.817,0,0,0,2.054-.872,2.783,2.783,0,0,0,.851-2.028,2.721,2.721,0,0,0-.851-2.028A2.86,2.86,0,0,0,2405.534,564.96Z" transform="translate(-2237.32 -561.441)" fill="#0B637B"/>
      <rect id="Rectangle_424" data-name="Rectangle 424" width="4.854" height="24.541" transform="translate(165.81 13.829)" fill="#0B637B"/>
      <path id="Path_2737" data-name="Path 2737" d="M2446.175,596.247a10.631,10.631,0,0,0-8.243,3.489,13.014,13.014,0,0,0-3.175,9.111,13.824,13.824,0,0,0,1.505,6.572,12.245,12.245,0,0,0,4.016,4.523,11.575,11.575,0,0,0,6.564,1.683,18.538,18.538,0,0,0,5.177-.624,16.258,16.258,0,0,0,4.444-2.133v-4.749a14.634,14.634,0,0,1-8.858,2.987,7.806,7.806,0,0,1-5.617-2.08,7.971,7.971,0,0,1-2.359-5.6h17.262v-.615q0-5.731-2.909-9.159A9.644,9.644,0,0,0,2446.175,596.247Zm-6.455,10.266a7.735,7.735,0,0,1,2.181-4.479,5.979,5.979,0,0,1,4.283-1.575,5.568,5.568,0,0,1,4.161,1.575,6.827,6.827,0,0,1,1.744,4.479Z" transform="translate(-2259.313 -582.898)" fill="#0B637B"/>
      <path id="Path_2738" data-name="Path 2738" d="M2535.979,557.271V570.5a15.79,15.79,0,0,0-5.334-1.042,11.6,11.6,0,0,0-8.683,3.489,12.233,12.233,0,0,0-3.4,8.91q0,5.783,3.24,9.228a11.341,11.341,0,0,0,8.683,3.441h10.38V557.271Zm0,33.106h-3.76a15.607,15.607,0,0,1-4.51-.436,5.774,5.774,0,0,1-2.372-1.653,8.361,8.361,0,0,1-1.866-5.844,9.184,9.184,0,0,1,2.146-6.4,7.4,7.4,0,0,1,5.774-2.372,10.035,10.035,0,0,1,4.588,1.147Z" transform="translate(-2316.787 -556.168)" fill="#0B637B"/>
      <path id="Path_2739" data-name="Path 2739" d="M1900.533,585.567l-.436.166a13.52,13.52,0,1,1,3.489-23.739l2.782-4.906a19.189,19.189,0,1,0-3.541,33.629l8.757,5.875.34.227-4.885-8.487h0l-2.835-4.932A13.563,13.563,0,0,1,1900.533,585.567Z" transform="translate(-1876.381 -553.761)" fill="#0B637B"/>
    </g>
    <path id="Path_2740" data-name="Path 2740" d="M1975.608,581.346a19.137,19.137,0,0,0-7.707-15.386l-2.839,4.919a13.522,13.522,0,0,1,.641,20.293l2.861,4.972A19.1,19.1,0,0,0,1975.608,581.346Z" transform="translate(-60.817 -8.366)" fill="#73df81"/>
  </g>
</svg>
